<svg width="18" height="14" viewBox="0 0 18 14" fill="none" xmlns="http://www.w3.org/2000/svg">
<path d="M7.70713 2.37376C8.09765 1.98324 8.09765 1.35007 7.70713 0.95955C7.3166 0.569025 6.68344 0.569025 6.29291 0.95955L0.95958 6.29288C0.764318 6.48815 0.666687 6.74407 0.666687 6.99999C0.666687 7.13558 0.693672 7.26487 0.742566 7.38277C0.791366 7.50072 0.863704 7.61122 0.95958 7.7071L6.29291 13.0404C6.68344 13.431 7.3166 13.431 7.70713 13.0404C8.09765 12.6499 8.09765 12.0167 7.70713 11.6262L4.0809 7.99999H17C17.5523 7.99999 18 7.55228 18 6.99999C18 6.44771 17.5523 5.99999 17 5.99999H4.0809L7.70713 2.37376Z" fill="black"/>
</svg>
