<svg width="14" height="18" viewBox="0 0 14 18" fill="none" xmlns="http://www.w3.org/2000/svg">
<path fill-rule="evenodd" clip-rule="evenodd" d="M7.83332 1.49999C7.83332 1.03975 7.46023 0.666656 6.99999 0.666656C6.53975 0.666656 6.16666 1.03975 6.16666 1.49999V2.12499H5.70214C3.84792 2.12499 2.31325 3.56667 2.1975 5.41728L2.01333 8.36182C1.94312 9.48449 1.56621 10.5664 0.92366 11.4896C0.343091 12.3239 0.859942 13.476 1.86905 13.5971L4.70832 13.9378V14.8333C4.70832 16.099 5.73434 17.125 6.99999 17.125C8.26564 17.125 9.29166 16.099 9.29166 14.8333V13.9378L12.1309 13.5971C13.14 13.476 13.6569 12.3239 13.0763 11.4896C12.4338 10.5664 12.0569 9.48449 11.9866 8.36182L11.8025 5.41728C11.6867 3.56667 10.1521 2.12499 8.29783 2.12499H7.83332V1.49999ZM5.70214 3.37499C4.50797 3.37499 3.51961 4.30347 3.44507 5.49531L3.2609 8.43985C3.1764 9.7908 2.72286 11.0927 1.94965 12.2037C1.90769 12.264 1.94504 12.3472 2.01798 12.356L5.1327 12.7298C6.37311 12.8786 7.62687 12.8786 8.86727 12.7298L11.982 12.356C12.0549 12.3472 12.0923 12.264 12.0503 12.2037C11.2771 11.0927 10.8236 9.7908 10.7391 8.43985L10.5549 5.49531C10.4804 4.30347 9.492 3.37499 8.29783 3.37499H5.70214ZM6.99999 15.875C6.42469 15.875 5.95832 15.4086 5.95832 14.8333V14.2083H8.04166V14.8333C8.04166 15.4086 7.57529 15.875 6.99999 15.875Z" fill="#212121"/>
</svg>
