<svg width="22" height="14" viewBox="0 0 22 14" fill="none" xmlns="http://www.w3.org/2000/svg">
<path d="M15 10.5C16.7848 10.5 18.2778 9.13698 18.464 7.36813C18.4896 7.12454 18.4896 6.87546 18.464 6.63187C18.2778 4.86302 16.7848 3.5 15 3.5C13.2152 3.5 11.7222 4.86302 11.536 6.63187C11.5103 6.87546 11.5103 7.12454 11.536 7.36813C11.7222 9.13698 13.2152 10.5 15 10.5Z" fill="#212121"/>
<path fill-rule="evenodd" clip-rule="evenodd" d="M14.9256 13.75H7.07431C3.75281 13.75 0.924939 11.3336 0.406911 8.05275C0.296777 7.35524 0.296777 6.64476 0.406911 5.94725C0.92494 2.6664 3.75282 0.25 7.07431 0.25H14.9256C18.2471 0.25 21.075 2.6664 21.593 5.94725C21.7032 6.64476 21.7032 7.35524 21.593 8.05275C21.075 11.3336 18.2471 13.75 14.9256 13.75ZM14.9256 12.25C17.509 12.25 19.7085 10.3706 20.1114 7.8188C20.1971 7.2763 20.1971 6.72371 20.1114 6.1812C19.7085 3.62942 17.509 1.75 14.9256 1.75L7.07431 1.75C4.49093 1.75 2.29147 3.62942 1.88855 6.18119C1.8029 6.7237 1.8029 7.27629 1.88855 7.8188C2.29147 10.3706 4.49092 12.25 7.07431 12.25H14.9256Z" fill="#212121"/>
</svg>
