<svg width="18" height="18" viewBox="0 0 18 18" fill="none" xmlns="http://www.w3.org/2000/svg">
<path d="M7.89865 0.492285C7.39856 0.582836 6.91288 0.84626 6.59183 1.19612C6.43954 1.36076 6.26255 1.62006 6.19052 1.7847C6.16171 1.8485 5.24796 4.20901 4.16134 7.03052C3.07267 9.85202 1.72057 13.3588 1.15462 14.8241C0.588672 16.2894 0.121509 17.5057 0.115335 17.5242C0.105045 17.5592 0.187364 17.5612 1.65883 17.5612C2.97594 17.5612 3.23731 17.5571 3.37931 17.5304C4.13047 17.3863 4.72935 16.9377 5.05245 16.275C5.12448 16.1268 5.33028 15.5177 5.7995 14.073C8.86591 4.61444 8.5922 5.43969 8.65188 5.43969C8.70745 5.43969 8.59014 5.08778 11.5125 14.0421C11.8747 15.1575 12.2081 16.1454 12.2513 16.238C12.4036 16.5652 12.6629 16.8821 12.9613 17.1064C13.1548 17.2526 13.5129 17.4254 13.7639 17.4933L13.9697 17.551L15.6326 17.5571C16.5463 17.5592 17.2934 17.5571 17.2934 17.551C17.2934 17.5448 16.8015 16.2421 16.2006 14.6533C15.5997 13.0666 14.2702 9.55361 13.2474 6.84941C12.2225 4.14316 11.3458 1.84644 11.2964 1.7456C11.0124 1.1529 10.4629 0.710432 9.78172 0.525213C9.59032 0.473763 9.56974 0.471704 8.82475 0.467588C8.22382 0.463472 8.02831 0.467588 7.89865 0.492285Z" fill="#212121"/>
</svg>
