<svg width="17" height="18" viewBox="0 0 17 18" fill="none" xmlns="http://www.w3.org/2000/svg">
<path d="M9.18392 0.018919C9.14481 0.023035 8.99664 0.0374413 8.85464 0.0477314C6.63407 0.239124 4.57196 1.1611 3.11284 2.62022C2.47898 3.25614 2.00153 3.91469 1.58787 4.72966C1.10013 5.69485 0.805838 6.7115 0.672069 7.89896C0.602097 8.53282 0.612387 9.60915 0.696765 10.2759C1.22155 14.4393 4.23033 17.3595 8.55623 17.9111C9.11806 17.9831 9.51937 17.9996 10.3364 17.9872C11.53 17.9687 12.4541 17.8637 13.5283 17.623C14.228 17.4666 15.0656 17.2134 15.3476 17.0714C16.0185 16.736 16.4939 16.0651 16.5927 15.3139C16.6091 15.1966 16.6133 14.254 16.6091 12.2825L16.603 9.42187L16.5474 9.22637C16.2902 8.31673 15.6686 7.72403 14.7405 7.50589C14.5985 7.47296 14.3865 7.46884 12.0713 7.46267L9.55435 7.45444V8.00598C9.55435 8.31056 9.56464 8.63778 9.57699 8.73245C9.69841 9.71822 10.3487 10.4653 11.3201 10.7328C11.4642 10.774 11.5424 10.7781 12.1536 10.7863L12.8266 10.7925L12.8224 12.3586L12.8163 13.9248L12.6002 14.005C12.0013 14.2314 11.3242 14.3446 10.4763 14.3652C9.6943 14.3837 9.15099 14.324 8.54594 14.1573C6.93865 13.7148 5.78412 12.5706 5.28608 10.9304C4.96709 9.87669 4.93211 8.56575 5.19347 7.50177C5.32107 6.98521 5.56597 6.39663 5.83968 5.95416C6.5785 4.76258 7.77213 3.95585 9.14276 3.7233C9.49261 3.66362 9.81778 3.64304 10.2335 3.65539C11.0011 3.67802 11.6823 3.82826 12.3203 4.11638C12.6722 4.27484 12.7895 4.32012 12.9603 4.36539C13.7177 4.56708 14.5409 4.36745 15.0883 3.84678C15.1603 3.77681 15.5061 3.39402 15.858 2.99271L16.498 2.26624L16.3951 2.17569C16.0494 1.86493 15.6048 1.54595 15.2056 1.31545C13.979 0.607504 12.3779 0.146515 10.7377 0.0271511C10.4784 0.00862885 9.3609 0.00245476 9.18392 0.018919Z" fill="#212121"/>
</svg>
