<svg width="14" height="18" viewBox="0 0 14 18" fill="none" xmlns="http://www.w3.org/2000/svg">
<path d="M2.08228 0.492285C1.07592 0.677504 0.320638 1.45954 0.176579 2.46795C0.160115 2.58526 0.155999 4.40246 0.160115 9.12349L0.166289 15.6164L0.223913 15.8222C0.300058 16.1021 0.491452 16.4808 0.662265 16.6928C1.01624 17.1352 1.49575 17.4192 2.07199 17.5304C2.21811 17.5571 2.58031 17.5612 4.86674 17.5612C6.44522 17.5612 7.60799 17.553 7.78086 17.5407C9.72155 17.3987 11.2156 16.8389 12.1932 15.886C12.5739 15.5135 12.7982 15.211 13.0205 14.7644C13.3086 14.1882 13.4609 13.5338 13.4856 12.7764C13.5021 12.194 13.4424 11.7392 13.2839 11.2556C12.8476 9.92611 11.7116 8.96297 10.2052 8.64604C10.0838 8.62134 9.9932 8.59253 9.9932 8.57812C9.9932 8.56578 10.0735 8.52462 10.1743 8.48757C11.8516 7.85577 12.7921 6.54895 12.7921 4.84699C12.7921 3.99087 12.5739 3.19648 12.1664 2.5688C11.5058 1.55421 10.2834 0.868896 8.64522 0.593126C7.9064 0.469646 7.98254 0.471704 4.99228 0.467588C2.66469 0.463472 2.22016 0.467588 2.08228 0.492285ZM7.10995 3.80153C7.93315 3.93942 8.41884 4.22342 8.65345 4.70293C8.7584 4.91696 8.79956 5.12482 8.79956 5.42323C8.79751 6.25877 8.37356 6.82883 7.54625 7.10666C7.44541 7.14165 7.25813 7.18898 7.12848 7.21162C6.90827 7.25484 6.81978 7.2569 5.52324 7.26513L4.1485 7.27336V5.51172V3.75008L5.52324 3.75831C6.70659 3.76449 6.92473 3.77066 7.10995 3.80153ZM7.34868 10.3645C8.49087 10.527 9.08357 10.9222 9.2976 11.6672C9.33876 11.8092 9.34493 11.8771 9.34493 12.1899C9.34493 12.6118 9.31818 12.7517 9.18235 13.044C8.86954 13.7087 8.15541 14.0935 7.03175 14.2067C6.91033 14.2191 6.24766 14.2273 5.48414 14.2273H4.1485V12.2702V10.3151L5.63643 10.3233C6.84036 10.3295 7.16552 10.3377 7.34868 10.3645Z" fill="#212121"/>
</svg>
