<svg width="24" height="24" viewBox="0 0 24 24" fill="none" xmlns="http://www.w3.org/2000/svg">
<path fill-rule="evenodd" clip-rule="evenodd" d="M15.1801 16.5943C11.6464 19.4245 6.47382 19.2018 3.19811 15.9261C-0.316607 12.4113 -0.316607 6.71286 3.19811 3.19814C6.71283 -0.316577 12.4113 -0.316576 15.926 3.19814C19.2017 6.47385 19.4245 11.6464 16.5943 15.1801L23.4685 22.0543C23.859 22.4448 23.859 23.078 23.4685 23.4685C23.078 23.859 22.4448 23.859 22.0543 23.4685L15.1801 16.5943ZM4.61233 14.5119C1.87866 11.7782 1.87866 7.34603 4.61233 4.61236C7.34599 1.87869 11.7782 1.87869 14.5118 4.61236C17.2435 7.34402 17.2455 11.7717 14.5178 14.5058C14.5158 14.5078 14.5138 14.5098 14.5118 14.5118C14.5098 14.5138 14.5078 14.5158 14.5058 14.5179C11.7717 17.2455 7.34399 17.2435 4.61233 14.5119Z" fill="black"/>
</svg>
